<svg xmlns="http://www.w3.org/2000/svg" viewBox="0 0 128 128">
  <circle cx="36" cy="29" r="7" fill="#AB47BC" stroke="#33322E" stroke-width="4" stroke-linejoin="round" stroke-linecap="round"/>
  <circle cx="92" cy="29" r="7" fill="#AB47BC" stroke="#33322E" stroke-width="4" stroke-linejoin="round" stroke-linecap="round"/>
  <path d="M 12 67 C 12 45 32 31 64 31 C 96 31 116 45 116 67 C 116 89 96 105 64 105 C 32 105 12 89 12 67 Z" fill="#AB47BC" stroke="#33322E" stroke-width="4" stroke-linejoin="round" stroke-linecap="round"/>
  <circle cx="36" cy="27" r="3" fill="#EC407A"/>
  <circle cx="92" cy="27" r="3" fill="#EC407A"/>
  <rect x="24" y="63" width="80" height="36" rx="16" fill="#FFF8E1" stroke="#33322E" stroke-width="4" stroke-linejoin="round" stroke-linecap="round"/>
  <ellipse cx="55" cy="72" rx="4.5" ry="3.5" fill="#33322E"/>
  <ellipse cx="73" cy="72" rx="4.5" ry="3.5" fill="#33322E"/>
  <path d="M 36 83 C 48 79 80 79 92 83 C 92 91 80 95 64 95 C 48 95 36 91 36 83 Z" fill="#EC407A" stroke="#33322E" stroke-width="4" stroke-linejoin="round" stroke-linecap="round"/>
  <rect x="52" y="81" width="8" height="9" rx="3" fill="#FFFFFF" stroke="#33322E" stroke-width="3" stroke-linejoin="round" stroke-linecap="round"/>
  <rect x="68" y="81" width="8" height="9" rx="3" fill="#FFFFFF" stroke="#33322E" stroke-width="3" stroke-linejoin="round" stroke-linecap="round"/>
  <circle cx="36" cy="49" r="6" fill="#33322E"/>
  <circle cx="92" cy="49" r="6" fill="#33322E"/>
  <circle cx="37.8" cy="47" r="2.2" fill="#FFFFFF"/>
  <circle cx="93.8" cy="47" r="2.2" fill="#FFFFFF"/>
</svg>
