<svg xmlns="http://www.w3.org/2000/svg" viewBox="0 0 128 128">
  <path d="M 12 36 L 44 24 L 84 36 L 116 24 L 116 92 L 84 104 L 44 92 L 12 104 Z" fill="#FFF8E1" stroke="#33322E" stroke-width="4" stroke-linejoin="round" stroke-linecap="round"/>
  <path d="M 44 24 L 44 92" fill="none" stroke="#33322E" stroke-width="3" stroke-linejoin="round" stroke-linecap="round"/>
  <path d="M 84 36 L 84 104" fill="none" stroke="#33322E" stroke-width="3" stroke-linejoin="round" stroke-linecap="round"/>
  <path d="M 20 92 C 30 78 26 66 38 58 C 48 51 54 62 62 58" fill="none" stroke="#42A5F5" stroke-width="5" stroke-linejoin="round" stroke-linecap="round"/>
  <path d="M 88 96 C 80 84 72 78 72 68 C 72 58 79 52 88 52 C 97 52 104 58 104 68 C 104 78 96 84 88 96 Z" fill="#E53935" stroke="#33322E" stroke-width="4" stroke-linejoin="round" stroke-linecap="round"/>
  <circle cx="88" cy="67" r="6" fill="#FFF8E1"/>
</svg>
